<?xml version="1.0" encoding="UTF-8" standalone="no"?><!DOCTYPE svg PUBLIC "-//W3C//DTD SVG 1.1//EN" "http://www.w3.org/Graphics/SVG/1.1/DTD/svg11.dtd"><svg width="100%" height="100%" viewBox="0 0 76 146" version="1.1" xmlns="http://www.w3.org/2000/svg" xmlns:xlink="http://www.w3.org/1999/xlink" xml:space="preserve" xmlns:serif="http://www.serif.com/" style="fill-rule:evenodd;clip-rule:evenodd;stroke-linecap:round;stroke-linejoin:round;stroke-miterlimit:1.5;"><g><g id="Ebene_2"><g><g id="Ebene_1-2"><path d="M76.713,30.883c0.026,-6.353 -0.177,-24.72 -0.386,-29.832c-4.043,0.619 -6.366,4.183 -5.814,10.062c0.009,0.099 1.514,6.181 2.227,9.282c1.232,5.365 0.368,7.232 -0.835,10.908l4.808,-0.42Z" style="fill:#735aa3;fill-rule:nonzero;"/><path d="M71.482,24.098c-0.298,-1.794 -6.006,-7.977 -7.744,-8.824c-1.738,-0.846 -3.401,-1.883 -5.553,-0.841c-0.571,0.276 -0.916,0.991 -0.985,1.628c-0.065,0.597 -0.621,3.768 2.75,4.943c0,0 3.844,1.427 5.624,1.532c3.489,0.207 5.46,2.696 5.908,1.562Z" style="fill:#735aa3;fill-rule:nonzero;"/><path d="M75.969,32.521l0.326,113.779l-65.129,0.001c-1.842,-5.635 -2.965,-7.781 -4.453,-11.988c-14.1,-39.7 2.256,-101.792 69.256,-101.792Z" style="fill:#735aa3;fill-rule:nonzero;"/><path d="M75.881,32.187c0,0 -29.179,-1.203 -50.819,18.32c-11.885,10.723 -22.429,28.41 -22.632,55.262c-0.176,23.142 8.34,40.252 8.34,40.252" style="fill:none;stroke:#000;stroke-width:3.5px;"/><path d="M76.292,1.66c1.132,-1.087 0.119,-0.634 0.044,-1.433c-5.964,1.029 -7.323,7.086 -6.523,11.986c0.6,3.7 2.6,8.5 2.8,12.7c-0.757,-2.868 -2.402,-5.424 -4.7,-7.3c-2.4,-2.2 -7,-6.5 -10.4,-3.7c-3.1,2.5 -0.6,6.7 2.2,8.1c2.2,1 4.6,1.1 6.9,1.6c1.8,0.4 5.291,2.024 5.663,3.729c0.059,2.432 -2.13,4.677 -2.863,5.241c-0.6,0.5 -0.1,1.5 0.6,1.1c4.5,-2.8 4.6,-8.5 3.5,-13.1c-1.3,-5.5 -5.298,-15.808 2.779,-18.923Zm-16.279,18.753c-2.543,-1.124 -3.512,-4.873 -0.772,-5.81c2.4,-0.6 4.572,1.51 6.272,2.81c2.333,1.898 3.952,3.736 5.1,6.2c-3,-2.3 -6.109,-0.982 -10.6,-3.2Z" style="fill:#020204;fill-rule:nonzero;"/><ellipse cx="58.713" cy="54.013" rx="6.4" ry="2.2" style="fill:#6ac4cb;"/><path d="M38.281,44.677c3.384,-1.011 6.414,-0.888 6.762,0.275c0.348,1.164 -2.118,2.929 -5.502,3.941c-3.384,1.011 -6.414,0.888 -6.762,-0.275c-0.348,-1.164 2.118,-2.929 5.502,-3.941Z" style="fill:#6ac4cb;"/><path d="M62.181,35.816c4.506,-0.424 8.282,0.482 8.426,2.02c0.145,1.539 -3.396,3.132 -7.902,3.555c-4.505,0.424 -8.281,-0.481 -8.426,-2.02c-0.144,-1.538 3.396,-3.131 7.902,-3.555Z" style="fill:#6ac4cb;"/><path d="M35.263,101.642c7.212,-1.638 15.152,6.207 17.72,17.51c0.815,3.59 0.992,7.1 0.621,10.271c-6.304,1.956 -15.229,5.169 -21.255,7.475c-2.463,-3.064 -4.44,-7.142 -5.5,-11.809c-2.568,-11.302 1.203,-21.808 8.414,-23.447Z" style="fill:#fff;"/><path d="M37.754,111.472c4.951,-1.125 10.391,4.21 12.14,11.906c0.581,2.558 0.681,5.056 0.375,7.294c-4.349,1.476 -9.905,3.278 -14.438,4.968c-1.743,-2.1 -3.141,-4.932 -3.88,-8.185c-1.749,-7.696 0.852,-14.858 5.803,-15.983Z" style="fill:#1a1a1a;"/><path d="M43.531,117.378c1.893,-0.425 3.972,1.645 4.64,4.62c0.668,2.975 -0.327,5.735 -2.22,6.16c-1.893,0.425 -3.972,-1.645 -4.64,-4.62c-0.668,-2.975 0.327,-5.735 2.22,-6.16Z" style="fill:#fff;"/><path d="M76.114,127.826l0.002,-2.044c-16.6,0 -32.703,4.931 -44.403,10.831c-0.7,0.3 -0.4,1.7 0.3,1.4c11.9,-5.1 31.501,-10.087 44.101,-10.187Z" style="fill:#030304;fill-rule:nonzero;"/><path d="M42.913,79.313c-3.2,-2.7 -8.3,-2.8 -12.2,-1.7c-3.4,1 -8.1,3.5 -7.6,7.7c0.2,1.8 3.1,1.9 2.9,0c-0.4,-3.6 5.5,-5.2 8.1,-5.5c2.6,-0.3 5.1,0.6 7.7,1.2c1,0.3 2,-0.93 1.1,-1.7Z" style="fill:#020204;fill-rule:nonzero;"/></g></g></g></g></svg>